# xmcd CD database file
#
# Track frame offsets:
#	150
#	9373
#	11661
#	33220
#	39078
#	51967
#	55008
#	69206
#	71780
#	84870
#	87721
#	104024
#	107365
#	124138
#
# Disc length: 1691 seconds
#
# Revision: 0
# Processed by: cddbd v1.5.2PL0 Copyright (c) Steve Scherf et al.
# Submitted via: CDex 1.51
#
DISCID=a906990e
DTITLE=Various Artist - Guitar Master Vol.6
DYEAR=2002
DGENRE=Blues
TTITLE0=Scuttle Buttin' - Stevie Ray Voughan
TTITLE1=Scuttle Buttin' - Stevie Ray Voughan (Practice)
TTITLE2=The Sky Is Crying - Stevie Ray Voughan
TTITLE3=The Sky Is Crying - Stevie Ray Voughan (Practice)
TTITLE4=Good Morning, Little School Girl - Johnny Winter
TTITLE5=Good Morning, Little School Girl - Johnny Winter (Practice)
TTITLE6=Born In Chicago - Paul Butterfield Blues Band
TTITLE7=Born In Chicago - Paul Butterfield Blues Band (Practice)
TTITLE8=Black Magic Woman - Fleetwood Mac
TTITLE9=Black Magic Woman - Fleetwood Mac (Practice)
TTITLE10=I Can't Be Satisfied - Rolling Stones
TTITLE11=I Can't Be Satisfied - Rolling Stones (Practice)
TTITLE12=Key To The Highway - Derec And The Dominos
TTITLE13=Key To The Highway - Derec And The Dominos (Practice)
EXTD=YEAR: 2002
EXTT0=
EXTT1=
EXTT2=
EXTT3=
EXTT4=
EXTT5=
EXTT6=
EXTT7=
EXTT8=
EXTT9=
EXTT10=
EXTT11=
EXTT12=
EXTT13=
PLAYORDER=
